<svg width="100" height="72" viewBox="0 0 100 72" fill="none" xmlns="http://www.w3.org/2000/svg">
<g clip-path="url(#clip0_326_12)">
<path d="M32.7582 69.7703C34.0582 71.2703 36.2582 71.4703 37.7582 70.2703C39.2582 69.0703 39.4582 66.7703 38.2582 65.2703C38.1582 65.0703 37.9582 64.9703 37.7582 64.7703L12.2582 39.2703L96.5582 39.2703C98.5582 39.1703 100.058 37.4703 99.9582 35.5703C99.8582 33.7703 98.4582 32.2703 96.5582 32.1703L12.2582 32.1703L37.7582 6.57032C39.0582 5.17032 39.0582 2.97032 37.7582 1.57032C36.3582 0.17032 34.1582 0.17032 32.7582 1.57032L1.15816 33.1703C-0.241835 34.4703 -0.241833 36.6703 1.05817 38.0703L1.15816 38.1703L32.7582 69.7703Z" fill="black"/>
</g>
<defs>
<clipPath id="clip0_326_12">
<rect width="100" height="71.5" fill="white"/>
</clipPath>
</defs>
</svg>
