<svg width="120" height="121" viewBox="0 0 120 121" fill="none" xmlns="http://www.w3.org/2000/svg">
<path d="M95.0225 55.0918H25.0848C19.5669 55.0918 15.0938 59.565 15.0938 65.0829V100.052C15.0938 105.57 19.5669 110.043 25.0848 110.043H95.0225C100.54 110.043 105.014 105.57 105.014 100.052V65.0829C105.014 59.565 100.54 55.0918 95.0225 55.0918Z" stroke="white" stroke-width="9.99109" stroke-linecap="round" stroke-linejoin="round"/>
<path d="M35.0757 55.0917V35.1096C35.0757 28.4851 37.7073 22.1319 42.3915 17.4476C47.0757 12.7634 53.4289 10.1318 60.0534 10.1318C66.6779 10.1318 73.0311 12.7634 77.7153 17.4476C82.3996 22.1319 85.0311 28.4851 85.0311 35.1096V55.0917" stroke="white" stroke-width="9.99109" stroke-linecap="round" stroke-linejoin="round"/>
</svg>
